<?xml version="1.0" encoding="utf-8"?>
<!-- Generator: Adobe Illustrator 26.5.1, SVG Export Plug-In . SVG Version: 6.00 Build 0)  -->
<svg version="1.1" xmlns="http://www.w3.org/2000/svg" xmlns:xlink="http://www.w3.org/1999/xlink" x="0px" y="0px"
	 viewBox="0 0 320 320" style="enable-background:new 0 0 320 320;" xml:space="preserve">
<style type="text/css">
	.st0{fill:none;}
	.st1{fill:#231F20;stroke:#231F20;stroke-miterlimit:10;}
</style>
<g id="Circle">
</g>
<g id="Logo">
	<g>
		<circle class="st0" cx="160" cy="160" r="160"/>
		<g>
			<g>
				<path class="st1" d="M227.35,225.95L300.59,99.1c1.95-3.37-0.49-7.58-4.38-7.58H149.74c-3.89,0-6.33,4.21-4.38,7.58
					l73.24,126.85C220.54,229.32,225.41,229.32,227.35,225.95"/>
				<path class="st1" d="M227.35,225.95L300.59,99.1c1.95-3.37-0.49-7.58-4.38-7.58H149.74c-3.89,0-6.33,4.21-4.38,7.58
					l73.24,126.85C220.54,229.32,225.41,229.32,227.35,225.95z"/>
			</g>
			<g>
				<path class="st1" d="M23.06,167.37h127.07c2.44,0,4.33,2.19,3.91,4.6c-5.65,32.12-33.7,56.52-67.44,56.52
					c-33.74,0-61.79-24.4-67.44-56.52C18.73,169.56,20.62,167.37,23.06,167.37"/>
				<path class="st1" d="M23.06,167.37h127.07c2.44,0,4.33,2.19,3.91,4.6c-5.65,32.12-33.7,56.52-67.44,56.52
					c-33.74,0-61.79-24.4-67.44-56.52C18.73,169.56,20.62,167.37,23.06,167.37z"/>
				<path class="st1" d="M150.49,154.97H22.69c-2.39,0-4.26-2.1-3.93-4.47c4.62-33.34,33.22-58.99,67.83-58.99
					c34.6,0,63.21,25.65,67.83,58.99C154.75,152.87,152.88,154.97,150.49,154.97"/>
				<path class="st1" d="M150.49,154.97H22.69c-2.39,0-4.26-2.1-3.93-4.47c4.62-33.34,33.22-58.99,67.83-58.99
					c34.6,0,63.21,25.65,67.83,58.99C154.75,152.87,152.88,154.97,150.49,154.97z"/>
			</g>
		</g>
	</g>
</g>
</svg>
